<svg id="_x3C_Layer_x3E_" version="1.1" viewBox="0 0 32 32" xml:space="preserve" xmlns="http://www.w3.org/2000/svg" enable-background="new 0 0 32 32"><g id="Ripple_XRP_2_"><g id="XMLID_64_"><g id="XMLID_294_"><path d="m19.62 10.45 6.63-6.56h4.19l-8.72 8.64c-3.16 3.12-8.28 3.12-11.44 0L1.55 3.89h4.2l6.63 6.56c2 1.98 5.23 1.98 7.24 0z" id="XMLID_8_" fill="#7ec93c" class="fill-78909c"></path></g><g id="XMLID_293_"><path d="M10.28 19.42c3.16-3.13 8.28-3.13 11.44 0l8.78 8.69h-4.19l-6.69-6.62c-2-1.98-5.23-1.98-7.24 0l-6.69 6.62H1.5l8.78-8.69z" id="XMLID_9_" fill="#7ec93c" class="fill-78909c"></path></g></g><g id="XMLID_63_"><g id="XMLID_89_"><path d="M16 15.36c-2.2 0-4.4-.83-6.07-2.48L1.2 4.25a.493.493 0 0 1-.11-.55c.08-.19.26-.31.46-.31h4.2a.5.5 0 0 1 .35.14l6.63 6.56c1.8 1.78 4.73 1.78 6.54 0l6.63-6.56a.5.5 0 0 1 .35-.14h4.19c.2 0 .39.12.46.31.08.19.03.4-.11.55l-8.72 8.64c-1.67 1.65-3.87 2.47-6.07 2.47zM2.77 4.39l7.87 7.78c2.96 2.92 7.78 2.92 10.74 0l7.86-7.78h-2.77l-6.48 6.42c-2.2 2.16-5.76 2.16-7.94 0L5.54 4.39H2.77z" id="XMLID_785_" fill="#7fcc2d" class="fill-455a64"></path></g><g id="XMLID_88_"><path d="M30.5 28.61h-4.19a.5.5 0 0 1-.35-.14l-6.69-6.62c-1.8-1.78-4.73-1.78-6.54 0l-6.69 6.62a.5.5 0 0 1-.35.14H1.5c-.2 0-.39-.12-.46-.31-.08-.19-.04-.4.11-.55l8.78-8.69c3.35-3.32 8.79-3.31 12.14 0l8.78 8.69c.14.14.19.36.11.55-.07.19-.26.31-.46.31zm-3.98-1h2.77l-7.92-7.83c-2.96-2.93-7.78-2.93-10.74 0l-7.92 7.83h2.77l6.54-6.48c2.2-2.16 5.76-2.16 7.94 0l6.56 6.48z" id="XMLID_782_" fill="#7fcc2d" class="fill-455a64"></path></g></g></g></svg>